<?xml version="1.0" encoding="utf-8"?>
<!-- Generator: Adobe Illustrator 25.2.1, SVG Export Plug-In . SVG Version: 6.00 Build 0)  -->
<svg version="1.1" id="Layer_1" xmlns="http://www.w3.org/2000/svg" xmlns:xlink="http://www.w3.org/1999/xlink" x="0px" y="0px"
	 viewBox="0 0 405.6 96.26" style="enable-background:new 0 0 405.6 96.26;" xml:space="preserve">
<style type="text/css">
	.st0{fill:#081E3E;}
</style>
<g>
	<path class="st0" d="M157.37,25.2c5.53,0,9.94-4.28,9.94-9.69c0-4.65-3.52-8.3-8.18-8.3c-5.66,0-10.06,4.4-10.06,9.81
		C149.07,21.68,152.72,25.2,157.37,25.2z"/>
	<path class="st0" d="M392.2,53.75L381.72,42.6c2.39-2.92,4.64-5.84,6.9-8.76h-13.4c-12.29,14.8-24.06,27.24-36.48,38.61l0-0.01
		c-7.83,7.3-12.74,10.61-15.66,10.61c-1.99,0-2.65-1.46-1.86-4.25l12.21-42.46h-12.34L319.23,43c-4.64-4.91-11.14-7.56-18.84-7.56
		c-18.32,0-33.06,15.1-34.04,34.3c-19.21,11.14-25.38,14.11-28.46,14.11c-2.12,0-2.92-1.59-1.99-4.51l20.17-70.58h-12.38l-2.79,9.55
		h0.04l-7.03,24.54c-4.51-4.91-11.01-7.43-18.71-7.43c-18.97,0-34.1,16.19-34.1,36.35c0,1.46,0.1,2.86,0.29,4.22
		c-12.37,6.19-20.32,8.91-25.66,8.91c-6.5,0-8.62-4.25-6.37-11.81l12.14-40.4h-34.63l-2.92,9.69l22.28-0.13l-2.97,10.15l-3.45,12.21
		l-1.53,5.26c-19.58,10.65-31.61,15.04-39.83,15.04c-6.77,0-9.15-3.85-6.9-11.68l20.94-63.52h-12.34l-2.79,9.55L81.92,64.7
		c-11.51,7.47-18.37,11.5-22.37,13.69c-9.47,4.62-17.99,6.88-26.01,6.88c-12.45,0-20.18-6.08-20.18-15.86
		c0-10.74,10.07-18.24,24.49-18.24h8.52l2.83-10.39h-4.06c-9.23,0-16.46-6.25-16.46-14.23c0-9.49,6.91-15.86,17.2-15.86
		c6.08,0,12.39,2.51,16.59,6.49c0.22,0.23,0.43,0.46,0.64,0.69l-2.92,9.95h10.61l7.83-26.67H68.03l-2.39,8.23
		c-1.74-2.28-3.99-4.15-6.64-5.58c-0.82-0.47-1.67-0.89-2.57-1.28C52.57,0.85,48.17,0,43.37,0C35.8,0,28.79,2.57,23.62,7.23
		c-5.15,4.64-7.99,10.92-7.99,17.68c0,7.81,4.23,14.58,11.31,18.12l1.52,0.76l-1.68,0.24C10.51,46.41,0,56.89,0,70.75
		c0,7.5,3.05,13.89,8.82,18.46c5.81,4.61,13.95,7.05,23.53,7.05c9.41,0,20.2-3.34,32.08-9.92l-0.04-0.09
		c3.71-1.98,8.26-4.74,14.13-8.5c-0.79,10.89,5.54,17.64,17.02,17.64c9.93,0,20.87-3.72,40.95-14.31
		c0.42,8.78,6.16,14.18,16.06,14.18c7.94,0,16.65-2.74,31.7-10.42c3.48,6.27,9.59,10.15,17.15,10.15c6.77,0,12.6-3.18,21.49-11.54
		c-0.53,6.9,3.32,11.14,10.61,11.14c6.21,0,13.73-3.29,33.81-14.96c2.58,9.28,9.79,15.38,19.27,15.38c6.77,0,12.6-3.18,21.63-11.68
		c-0.4,7.03,3.58,11.41,11.01,11.41c6.87,0,15.05-4.47,25.47-13.67l0.01,0.01c10.22-9.02,20.3-19.24,29.85-30.12l9.15,9.42
		c7.83,8.09,9.82,11.68,9.82,15.39c0,5.97-6.37,9.69-16.58,9.69c-5.84,0-12.47-1.46-18.57-3.85l-3.58,9.02
		c6.77,2.79,15.66,4.51,23.48,4.51c16.19,0,27.33-7.96,27.33-19.37C405.6,70.07,402.94,65.16,392.2,53.75z M224.49,75.89
		c-8.23,6.63-13.4,9.02-18.44,9.02c-7.7,0-12.74-5.57-12.74-14.2c0-14.2,9.82-24.94,22.69-24.94c5.97,0,10.88,1.99,15.26,6.24
		L224.49,75.89z M309.81,75.77c-8.36,6.77-13.53,9.15-18.57,9.15c-7.7,0-12.74-5.57-12.74-14.2c0-14.2,9.82-24.94,22.69-24.94
		c5.97,0,11.01,1.99,15.39,6.37L309.81,75.77z"/>
	<path class="st0" d="M347.71,24.29c0.94-0.22,1.72-0.53,2.48-0.96c-0.64,3.43-2.84,7.07-6.29,10.63h0
		c2.46,2.23,6.35,1.84,8.27-0.87c4.27-6.03,6.16-12.68,4.73-18.64c-1.32-5.5-5.64-8.34-10.79-7.1c-5.19,1.25-8.39,6.36-7.3,11.44
		C339.66,22.78,343.74,25.22,347.71,24.29z"/>
</g>
</svg>
