<?xml version="1.0" encoding="utf-8"?>
<!-- Generator: Adobe Illustrator 25.4.1, SVG Export Plug-In . SVG Version: 6.00 Build 0)  -->
<svg version="1.1" id="Layer_1" xmlns="http://www.w3.org/2000/svg" xmlns:xlink="http://www.w3.org/1999/xlink" x="0px" y="0px"
	 viewBox="0 0 5000.4 103.7" style="enable-background:new 0 0 5000.4 103.7;" xml:space="preserve">
<style type="text/css">
	.st0{fill:#061D3F;}
</style>
<path class="st0" d="M5203.1-908.2c-1.5-0.1-3-0.1-4.5-0.1l0,0c-20.1,0-30.9,6.6-39.7,11.9c-7.7,4.7-13.3,8.1-26.1,8.1
	s-18.4-3.4-26.1-8.1c-8.7-5.3-19.6-11.9-39.7-11.9l0,0c-7.5,0-13.8,0.9-19.1,2.4c-8.8,2.4-15.1,6.2-20.6,9.5
	c-0.6,0.4-1.2,0.7-1.8,1.1c-0.2,0.1-0.3,0.2-0.5,0.3c-0.6,0.4-1.3,0.7-1.9,1.1l0,0c-0.9,0.5-1.8,1-2.7,1.5c-0.4,0.2-0.8,0.4-1.2,0.6
	c-0.1,0.1-0.2,0.1-0.3,0.1c-0.4,0.2-0.7,0.3-1.1,0.5c-0.1,0-0.1,0-0.2,0.1c-0.4,0.2-0.9,0.3-1.3,0.5c-0.1,0-0.2,0.1-0.3,0.1
	c-0.4,0.1-0.7,0.3-1.1,0.4c-0.1,0-0.2,0.1-0.3,0.1c-0.5,0.1-0.9,0.3-1.4,0.4c-0.1,0-0.2,0.1-0.3,0.1c-0.4,0.1-0.8,0.2-1.2,0.3
	c-0.1,0-0.2,0.1-0.4,0.1c-0.5,0.1-1,0.2-1.6,0.3c-0.1,0-0.2,0-0.3,0c-0.5,0.1-0.9,0.1-1.4,0.2c-0.1,0-0.3,0-0.4,0.1
	c-0.6,0.1-1.2,0.1-1.8,0.2c-0.1,0-0.2,0-0.2,0c-0.6,0-1.1,0.1-1.7,0.1c-0.2,0-0.4,0-0.5,0c-0.7,0-1.4,0-2.1,0l0,0
	c-1.5,0-2.9-0.1-4.3-0.1c-0.1,0-0.3,0-0.4,0c-0.6,0-1.2-0.1-1.8-0.2c-0.1,0-0.2,0-0.3,0c-0.5-0.1-1-0.1-1.5-0.2c-0.1,0-0.2,0-0.3,0
	c-0.5-0.1-1.1-0.2-1.6-0.3c-0.1,0-0.2,0-0.3-0.1c-1-0.2-2-0.5-2.9-0.8c-0.1,0-0.2-0.1-0.3-0.1c-0.5-0.1-0.9-0.3-1.3-0.4
	c-0.1,0-0.1,0-0.2-0.1c-0.4-0.1-0.8-0.3-1.2-0.5c-0.1,0-0.1,0-0.2-0.1c-0.4-0.2-0.8-0.4-1.3-0.5c-0.1,0-0.2-0.1-0.2-0.1
	c-0.4-0.2-0.9-0.4-1.3-0.6c-0.6-0.3-1.2-0.6-1.8-0.9c-0.2-0.1-0.3-0.2-0.5-0.3c-0.6-0.3-1.1-0.6-1.7-1l-0.1-0.1
	c-0.9-0.5-1.7-1.1-2.7-1.6c0,0,0,0-0.1,0c-8.2-5-18.5-11.2-36.7-11.8c-0.2,0-0.4,0-0.6,0c-0.5,0-0.9,0-1.4,0l0,0c-0.2,0-0.4,0-0.6,0
	s-0.3,0-0.5,0l0,0c-0.1,0-0.3,0-0.4,0s-0.3,0-0.4,0l0,0c-20.1,0-30.9,6.6-39.7,11.9c-7.6,4.7-13.2,8-25.7,8.1c-0.7,0-1.3,0-1.9,0
	l0,0c-0.7,0-1.3-0.1-1.9-0.1c-0.1,0-0.3,0-0.4,0c-0.6,0-1.2-0.1-1.8-0.2c-0.1,0-0.2,0-0.3,0c-0.5-0.1-1-0.1-1.5-0.2
	c-0.1,0-0.2,0-0.3,0c-0.5-0.1-1-0.2-1.6-0.3c-0.1,0-0.2,0-0.3-0.1c-1-0.2-2-0.5-2.9-0.8c-0.1,0-0.2-0.1-0.3-0.1
	c-0.4-0.1-0.9-0.3-1.3-0.4c-0.1,0-0.1-0.1-0.2-0.1c-0.4-0.1-0.8-0.3-1.2-0.5c-0.1,0-0.1-0.1-0.2-0.1c-0.4-0.2-0.8-0.4-1.2-0.5
	c-0.1,0-0.2-0.1-0.3-0.1c-0.4-0.2-0.8-0.4-1.2-0.6c-0.6-0.3-1.2-0.6-1.8-1c-0.2-0.1-0.3-0.2-0.5-0.3c-0.6-0.3-1.2-0.7-1.8-1
	c-0.9-0.5-1.8-1.1-2.8-1.7l0,0c-4.1-2.5-8.6-5.2-14.4-7.5c-0.2-0.1-0.3-0.1-0.5-0.2c-0.4-0.1-0.8-0.3-1.1-0.4
	c-0.4-0.1-0.8-0.3-1.2-0.4c-0.3-0.1-0.5-0.2-0.8-0.3c-0.6-0.2-1.2-0.4-1.9-0.6c-0.1,0-0.3-0.1-0.4-0.1c-5.4-1.5-11.7-2.5-19.4-2.5
	l0,0l0,0l0,0c-0.1,0-0.3,0-0.4,0s-0.3,0-0.4,0l0,0c-0.2,0-0.5,0-0.7,0s-0.4,0-0.5,0l0,0c-20.1,0-30.9,6.6-39.7,11.9
	c-7.5,4.6-13,7.9-25,8.1c-12-0.2-17.6-3.5-25-8.1c-7-4.2-15.2-9.2-28.3-11.1h-0.1c-0.7-0.1-1.5-0.2-2.2-0.3c-0.3,0-0.5-0.1-0.8-0.1
	c-0.7-0.1-1.3-0.1-2-0.2c-0.4,0-0.9-0.1-1.4-0.1c-0.6,0-1.1-0.1-1.7-0.1c-0.9,0-1.8-0.1-2.7-0.1c-0.2,0-0.3,0-0.5,0l0,0
	c0,0,0,0-0.1,0l0,0l0,0l0,0c-0.2,0-0.3,0-0.5,0h-0.1c-0.1,0-0.1,0-0.2,0l0,0c-0.2,0-0.4,0-0.6,0s-0.4,0-0.6,0l0,0
	c-7.5,0-13.8,0.9-19.1,2.4c-8.8,2.4-15.1,6.2-20.6,9.5c-0.6,0.4-1.2,0.7-1.8,1.1c-0.2,0.1-0.3,0.2-0.5,0.3c-0.6,0.4-1.2,0.7-1.8,1.1
	l0,0c-0.9,0.5-1.8,1-2.7,1.5c-0.4,0.2-0.8,0.4-1.2,0.6c-0.1,0-0.2,0.1-0.3,0.1c-0.4,0.2-0.7,0.3-1.1,0.5c-0.1,0-0.1,0-0.2,0.1
	c-0.4,0.2-0.9,0.3-1.3,0.5c-0.1,0-0.2,0.1-0.3,0.1c-0.4,0.1-0.7,0.3-1.1,0.4c-0.1,0-0.2,0.1-0.3,0.1c-0.5,0.1-0.9,0.3-1.4,0.4
	c-0.1,0-0.2,0.1-0.3,0.1c-0.4,0.1-0.8,0.2-1.2,0.3c-0.1,0-0.2,0.1-0.4,0.1c-0.5,0.1-1,0.2-1.6,0.3c-0.1,0-0.2,0-0.3,0
	c-0.5,0.1-0.9,0.1-1.4,0.2c-0.1,0-0.3,0-0.4,0.1c-0.6,0.1-1.2,0.1-1.8,0.2c-0.1,0-0.2,0-0.2,0c-0.6,0-1.1,0.1-1.7,0.1
	c-0.2,0-0.4,0-0.5,0c-0.3,0-0.6,0-1,0c-12-0.2-17.6-3.5-25-8.1c-5.5-3.3-11.8-7.1-20.7-9.5h-0.1c-0.9-0.2-1.7-0.4-2.6-0.6
	c-0.3-0.1-0.6-0.1-1-0.2c-0.6-0.1-1.3-0.3-1.9-0.4c-0.5-0.1-1-0.2-1.5-0.2c-0.5-0.1-1-0.2-1.5-0.2c-0.6-0.1-1.3-0.1-1.9-0.2
	c-0.5,0-0.9-0.1-1.3-0.1c-0.8-0.1-1.6-0.1-2.4-0.2c-0.3,0-0.7,0-1-0.1c-1.2,0-2.4-0.1-3.6-0.1l0,0l0,0l0,0l0,0l0,0
	c-0.1,0-0.2,0-0.3,0c-0.2,0-0.3,0-0.4,0l0,0l0,0l0,0c-0.2,0-0.4,0-0.6,0s-0.3,0-0.5,0c-0.1,0-0.1,0-0.2,0l0,0
	c-20.1,0-30.9,6.6-39.7,11.9c-0.1,0-0.1,0.1-0.2,0.1c-0.5,0.3-1,0.6-1.5,0.9c-0.2,0.1-0.4,0.2-0.6,0.4c-0.6,0.3-1.2,0.7-1.7,1
	l-0.1,0.1c-0.9,0.5-1.8,1-2.7,1.4c-0.4,0.2-0.8,0.4-1.3,0.6c-0.1,0-0.2,0.1-0.3,0.1c-0.4,0.2-0.8,0.3-1.2,0.5c0,0-0.1,0-0.1,0.1
	c-0.4,0.2-0.9,0.3-1.3,0.5c-0.1,0-0.2,0.1-0.3,0.1c-0.4,0.1-0.8,0.3-1.1,0.4c-0.1,0-0.2,0.1-0.3,0.1c-0.5,0.1-0.9,0.3-1.4,0.4
	c-0.1,0-0.2,0.1-0.3,0.1c-0.4,0.1-0.8,0.2-1.2,0.3c-0.1,0-0.2,0.1-0.4,0.1c-0.5,0.1-1,0.2-1.6,0.3c-0.1,0-0.2,0-0.3,0
	c-0.5,0.1-0.9,0.1-1.4,0.2c-0.1,0-0.3,0-0.4,0.1c-0.6,0.1-1.2,0.1-1.8,0.2c-0.1,0-0.2,0-0.2,0c-0.6,0-1.1,0.1-1.7,0.1
	c-0.2,0-0.4,0-0.5,0c-0.3,0-0.6,0-1,0c-12-0.2-17.6-3.5-25-8.1c-5.5-3.3-11.8-7.1-20.7-9.5h-0.1c-0.9-0.2-1.7-0.4-2.6-0.6
	c-0.3-0.1-0.7-0.1-1-0.2c-0.6-0.1-1.3-0.3-1.9-0.4c-0.5-0.1-1-0.2-1.5-0.2c-0.5-0.1-1-0.2-1.5-0.2c-0.6-0.1-1.3-0.1-1.9-0.2
	c-0.4,0-0.9-0.1-1.3-0.1c-0.8-0.1-1.6-0.1-2.5-0.2c-0.3,0-0.7,0-1-0.1c-1.2,0-2.4-0.1-3.7-0.1c0,0,0,0-0.1,0s0,0-0.1,0s-0.2,0-0.3,0
	c-0.1,0-0.2,0-0.3,0l0,0c0,0,0,0-0.1,0l0,0l0,0l0,0c-0.2,0-0.5,0-0.7,0s-0.4,0-0.6,0l0,0l0,0l0,0c-20.1,0-30.9,6.6-39.7,11.9
	c-2.9,1.8-5.5,3.3-8.3,4.6c-0.2,0.1-0.3,0.1-0.5,0.2c-0.3,0.1-0.6,0.3-0.9,0.4s-0.7,0.3-1.1,0.4c-0.1,0.1-0.3,0.1-0.4,0.2
	c-0.5,0.2-1,0.3-1.5,0.5l0,0c-0.5,0.2-1,0.3-1.6,0.4l0,0c-3,0.8-6.4,1.2-10.7,1.3c-0.5,0-1,0-1.4,0c-0.7,0-1.5-0.1-2.2-0.1
	c-1.4-0.1-2.7-0.3-3.9-0.5c-2.4-0.4-4.6-1-6.6-1.7c-4-1.4-7.3-3.5-11.1-5.8c-8.8-5.3-19.6-11.9-39.7-11.9c0,0,0,0-0.1,0s0,0-0.1,0
	s-0.3,0-0.4,0s-0.2,0-0.3,0l0,0l0,0l0,0l0,0l0,0c-0.2,0-0.4,0-0.6,0h-0.1c-0.2,0-0.3,0-0.5,0l0,0c0,0,0,0-0.1,0l0,0l0,0l0,0
	c-1.3,0-2.6,0-3.8,0.1h-0.1c-1.1,0.1-2.2,0.1-3.3,0.2c-0.1,0-0.2,0-0.2,0c-1,0.1-2,0.2-3,0.3c-0.1,0-0.2,0-0.3,0
	c-0.9,0.1-1.8,0.3-2.7,0.4c-0.1,0-0.3,0.1-0.4,0.1c-0.8,0.2-1.7,0.3-2.5,0.5c-0.2,0-0.3,0.1-0.4,0.1c-0.8,0.2-1.5,0.4-2.3,0.6
	c-0.2,0-0.3,0.1-0.5,0.1c-0.7,0.2-1.4,0.4-2.1,0.6c-0.2,0.1-0.4,0.1-0.5,0.2c-0.6,0.2-1.3,0.4-1.9,0.6c-0.2,0.1-0.4,0.1-0.6,0.2
	c-0.6,0.2-1.1,0.4-1.7,0.7c-0.2,0.1-0.4,0.2-0.6,0.3c-0.5,0.2-1,0.4-1.5,0.7c-0.2,0.1-0.4,0.2-0.7,0.3c-0.5,0.2-0.9,0.4-1.4,0.7
	c-0.2,0.1-0.5,0.2-0.7,0.4c-0.4,0.2-0.8,0.4-1.3,0.6c-0.2,0.1-0.5,0.3-0.7,0.4c-0.4,0.2-0.8,0.4-1.1,0.6c-0.3,0.1-0.5,0.3-0.8,0.4
	c-0.3,0.2-0.7,0.4-1,0.6s-0.6,0.3-0.9,0.5s-0.6,0.3-0.9,0.5c-0.4,0.2-0.7,0.4-1.1,0.7c-0.1,0.1-0.2,0.1-0.3,0.2
	c-0.2,0.1-0.3,0.2-0.5,0.3c-2.4,1.5-4.6,2.8-6.9,4c-0.3,0.2-0.6,0.3-0.9,0.5c-0.1,0.1-0.3,0.1-0.4,0.2c-0.5,0.2-0.9,0.4-1.4,0.6l0,0
	c-4.1,1.7-8.8,2.7-15.4,2.8c-12-0.2-17.5-3.5-25-8.1c-8.8-5.3-19.6-11.9-39.7-11.9l0,0l0,0l0,0l0,0l0,0l0,0l0,0c-0.1,0-0.2,0-0.3,0
	s-0.2,0-0.3,0l0,0l0,0l0,0l0,0l0,0c-0.2,0-0.4,0-0.6,0s-0.4,0-0.6,0l0,0l0,0l0,0l0,0l0,0c-1.2,0-2.4,0-3.6,0.1c-0.4,0-0.8,0-1.1,0.1
	c-0.8,0-1.5,0.1-2.3,0.1c-0.4,0-0.8,0.1-1.3,0.1c-0.7,0.1-1.3,0.1-2,0.2c-0.4,0.1-0.8,0.1-1.3,0.2c-0.6,0.1-1.2,0.2-1.8,0.3
	c-0.4,0.1-0.8,0.2-1.3,0.2c-0.5,0.1-1.1,0.2-1.6,0.3c-0.4,0.1-0.8,0.2-1.2,0.3c-0.5,0.1-1,0.2-1.5,0.4c-0.4,0.1-0.8,0.2-1.2,0.3
	c-0.5,0.1-0.9,0.3-1.4,0.4c-0.4,0.1-0.8,0.3-1.1,0.4c-0.4,0.1-0.9,0.3-1.3,0.4c-0.4,0.1-0.7,0.3-1.1,0.4c-0.4,0.2-0.8,0.3-1.2,0.5
	c-0.4,0.1-0.7,0.3-1.1,0.5s-0.7,0.3-1.1,0.5s-0.7,0.3-1,0.5s-0.7,0.3-1,0.5s-0.7,0.3-1,0.5s-0.6,0.3-0.9,0.5s-0.7,0.4-1,0.6
	c-0.3,0.2-0.6,0.3-0.8,0.5c-0.4,0.2-0.7,0.4-1.1,0.6c-0.2,0.1-0.5,0.3-0.7,0.4c-0.4,0.2-0.8,0.5-1.2,0.7c-0.2,0.1-0.4,0.2-0.5,0.3
	c-0.7,0.4-1.3,0.8-2,1.2c-7.5,4.6-13,7.9-25,8.1c-0.9,0-1.8,0-2.6-0.1c-0.3,0-0.5,0-0.8,0s-0.6-0.1-0.8-0.1c-0.4,0-0.8-0.1-1.2-0.1
	c-7.4-0.9-12-3.2-17.2-6.3c-0.5-0.3-1-0.6-1.5-0.9c-0.3-0.2-0.6-0.3-0.9-0.5c-8.8-5.3-19.6-11.9-39.7-11.9l0,0l0,0l0,0l0,0
	c-0.1,0-0.2,0-0.3,0s-0.2,0-0.3,0l0,0l0,0l0,0l0,0l0,0c-0.2,0-0.4,0-0.7,0c-0.2,0-0.3,0-0.5,0l0,0l0,0l0,0l0,0l0,0
	c-20.1,0-30.9,6.6-39.7,11.9c-0.5,0.3-1,0.6-1.4,0.9s-0.9,0.6-1.4,0.8c-0.9,0.5-1.8,1.1-2.7,1.5c-0.9,0.5-1.8,1-2.7,1.4
	c-4.4,2-9.4,3.3-16.8,3.5c-3.5-0.1-6.5-0.4-9.1-0.9c-0.6-0.1-1.1-0.3-1.7-0.4c-5.4-1.4-9.4-3.8-14.2-6.8
	c-8.8-5.3-19.6-11.9-39.7-11.9l0,0l0,0l0,0c-0.1,0-0.2,0-0.3,0s-0.2,0-0.3,0l0,0l0,0l0,0l0,0l0,0l0,0l0,0c-0.2,0-0.3,0-0.5,0
	s-0.4,0-0.7,0l0,0l0,0l0,0c0,0,0,0-0.1,0l0,0c-7.5,0-13.8,0.9-19.1,2.4c-0.9,0.2-1.7,0.5-2.6,0.8c-1.7,0.5-3.2,1.1-4.7,1.7
	c-0.7,0.3-1.5,0.6-2.2,0.9c-4.2,1.9-7.8,4.1-11.1,6.1c-4.2,2.5-7.7,4.7-12.1,6.2c-1.5,0.5-3.1,0.9-4.9,1.2c-2.3,0.4-5,0.7-8,0.7
	c-12-0.2-17.5-3.5-24.9-8.1c-8.8-5.3-19.6-11.9-39.7-11.9l0,0c0,0,0,0-0.1,0l0,0l0,0l0,0c-0.1,0-0.2,0-0.3,0s-0.2,0-0.3,0l0,0l0,0
	l0,0l0,0c-0.2,0-0.4,0-0.7,0c-0.2,0-0.3,0-0.5,0l0,0l0,0l0,0l0,0l0,0l0,0l0,0c-20.1,0-30.9,6.6-39.7,11.9c-7.5,4.6-13,7.9-24.9,8.1
	c-5.8-0.1-10.2-0.9-13.9-2.3c-0.5-0.2-1-0.4-1.5-0.6c-3.3-1.4-6.3-3.2-9.7-5.2c-8.8-5.3-19.6-11.9-39.7-11.9h-0.1l0,0l0,0
	c-0.1,0-0.3,0-0.4,0s-0.2,0-0.3,0l0,0l0,0l0,0c-0.2,0-0.4,0-0.6,0s-0.4,0-0.6,0l0,0l0,0l0,0l0,0c-7.5,0-13.8,0.9-19.1,2.4
	c-0.9,0.2-1.7,0.5-2.6,0.8c-1.7,0.5-3.2,1.1-4.7,1.7c-0.7,0.3-1.5,0.6-2.2,0.9c-4.2,1.9-7.8,4.1-11.1,6.1
	c-5.8,3.5-10.4,6.3-17.7,7.5c-1.2,0.2-2.5,0.3-3.9,0.5c-1.1,0.1-2.2,0.1-3.4,0.1c-12-0.2-17.5-3.5-25-8.1
	c-8.8-5.3-19.6-11.9-39.7-11.9l0,0l0,0l0,0l0,0l0,0c0,0,0,0-0.1,0c0,0,0,0-0.1,0s-0.2,0-0.3,0s-0.2,0-0.3,0l0,0c0,0,0,0-0.1,0
	s0,0,0,0l0,0l0,0c-0.2,0-0.4,0-0.6,0s-0.4,0-0.6,0l0,0l0,0l0,0c-20.1,0-30.9,6.6-39.7,11.9c-7.5,4.6-13,7.9-25,8.1
	c-0.4,0-0.9,0-1.3,0l0,0c-9.6-0.4-15-2.8-20.9-6.4c-0.9-0.5-1.8-1.1-2.8-1.7c-8.8-5.3-19.6-11.9-39.7-11.9l0,0l0,0l0,0
	c-0.1,0-0.2,0-0.3,0s-0.2,0-0.3,0h-0.1h-0.1c-0.2,0-0.4,0-0.6,0s-0.3,0-0.5,0l0,0c0,0,0,0-0.1,0l0,0l0,0l0,0
	c-20.1,0-30.9,6.6-39.7,11.9c-1.4,0.9-2.8,1.7-4.2,2.5c-0.9,0.5-1.8,1-2.7,1.5c-0.7,0.4-1.4,0.7-2.2,1c-0.9,0.4-1.9,0.8-2.8,1.1
	c-1.6,0.6-3.4,1-5.4,1.4c-0.2,0-0.5,0.1-0.7,0.1c-1,0.2-2.1,0.3-3.2,0.4c-0.2,0-0.4,0-0.6,0c-1,0.1-2.1,0.1-3.2,0.1
	c-0.4,0-0.8,0-1.2,0c-11.2-0.4-16.5-3.7-23.7-8.1c-8.8-5.3-19.6-11.9-39.7-11.9l0,0l0,0l0,0c-0.1,0-0.2,0-0.3,0s-0.2,0-0.3,0l0,0
	l0,0l0,0c0,0,0,0-0.1,0l0,0c-0.2,0-0.4,0-0.5,0c-0.2,0-0.4,0-0.5,0h-0.1h-0.1c-7.5,0-13.8,0.9-19.1,2.4c-0.9,0.2-1.7,0.5-2.6,0.8
	c-1.7,0.5-3.2,1.1-4.7,1.7c-0.7,0.3-1.5,0.6-2.2,0.9c-4.2,1.9-7.8,4.1-11.1,6.1c-6.1,3.8-11,6.7-19.2,7.7c-0.4,0-0.8,0.1-1.2,0.1
	c-0.6,0.1-1.2,0.1-1.9,0.1c-0.9,0.1-1.8,0.1-2.8,0.1c-1.2,0-2.3-0.1-3.3-0.1c-9.7-0.7-14.9-3.8-21.6-7.9
	c-8.8-5.3-19.6-11.9-39.7-11.9l0,0l0,0c-0.1,0-0.3,0-0.4,0s-0.2,0-0.3,0l0,0l0,0c-0.2,0-0.4,0-0.6,0s-0.4,0-0.6,0l0,0l0,0l0,0
	c0,0,0,0-0.1,0c0,0,0,0-0.1,0c-20.1,0-30.9,6.6-39.7,11.9c-7.5,4.6-13,7.9-25,8.1c-0.4,0-0.8,0-1.2,0c-4.7-0.2-8.4-0.9-11.6-1.9
	c-1.9-0.6-3.6-1.3-5.2-2.2l0,0c-2.3-1.1-4.5-2.5-6.9-4c-8.8-5.3-19.6-11.9-39.7-11.9l0,0l0,0c-0.1,0-0.2,0-0.3,0s-0.2,0-0.4,0l0,0
	l0,0l0,0l0,0l0,0c-0.2,0-0.4,0-0.6,0s-0.4,0-0.6,0l0,0l0,0c-20.1,0-30.9,6.6-39.7,11.9c-5.8,3.5-10.4,6.3-17.7,7.5
	c-1.2,0.2-2.5,0.3-3.9,0.5c-1.1,0.1-2.2,0.1-3.4,0.1c-12-0.2-17.5-3.5-25-8.1c-8.8-5.3-19.6-11.9-39.7-11.9c0,0,0,0-0.1,0
	c0,0,0,0-0.1,0s0,0,0,0l0,0l0,0c-0.1,0-0.2,0-0.3,0s-0.2,0-0.3,0l0,0l0,0c-0.2,0-0.4,0-0.6,0s-0.4,0-0.6,0l0,0l0,0l0,0l0,0l0,0
	c-20.1,0-30.9,6.6-39.7,11.9c-7.5,4.6-13,7.9-25,8.1c-12-0.2-17.5-3.5-25-8.1c-3.3-2-6.9-4.2-11.1-6.1c-0.7-0.3-1.4-0.6-2.2-0.9
	c-1.5-0.6-3.1-1.2-4.7-1.7c-0.8-0.3-1.7-0.5-2.6-0.8c-5.3-1.4-11.5-2.4-19.1-2.4h-0.1h-0.1c-0.1,0-0.2,0-0.3,0s-0.2,0-0.3,0l0,0l0,0
	c-0.2,0-0.4,0-0.6,0s-0.4,0-0.6,0l0,0l0,0c-7.5,0-13.8,0.9-19.1,2.4c-0.9,0.2-1.7,0.5-2.6,0.8c-1.7,0.5-3.2,1.1-4.7,1.7
	c-0.7,0.3-1.5,0.6-2.2,0.9c-4.2,1.9-7.8,4.1-11.1,6.1c-7.5,4.6-13,7.9-25,8.1c-12-0.2-17.5-3.5-25-8.1c-8.8-5.3-19.6-11.9-39.7-11.9
	l0,0l0,0l0,0c0,0,0,0-0.1,0c0,0,0,0-0.1,0s-0.2,0-0.3,0s-0.2,0-0.3,0c0,0,0,0-0.1,0c0,0,0,0-0.1,0l0,0l0,0l0,0c-0.2,0-0.4,0-0.6,0
	c-0.2,0-0.4,0-0.6,0l0,0l0,0c-20.1,0-30.9,6.6-39.7,11.9c-7.5,4.6-13,7.9-25,8.1c-12-0.2-17.5-3.5-25-8.1
	c-8.8-5.3-19.6-11.9-39.7-11.9l0,0l0,0c-0.1,0-0.2,0-0.3,0s-0.2,0-0.3,0h-0.1h-0.1c-0.2,0-0.4,0-0.6,0c-0.2,0-0.3,0-0.5,0
	c0,0,0,0-0.1,0c0,0,0,0-0.1,0l0,0l0,0l0,0c-20.1,0-30.9,6.6-39.7,11.9c-7.5,4.6-13,7.9-25,8.1c-12-0.2-17.5-3.5-25-8.1
	c-3.3-2-6.9-4.2-11.1-6.1c-0.7-0.3-1.4-0.6-2.2-0.9c-1.5-0.6-3.1-1.2-4.7-1.7c-0.8-0.3-1.7-0.5-2.6-0.8c-5.3-1.4-11.5-2.4-19.1-2.4
	l0,0l0,0c-0.1,0-0.2,0-0.3,0s-0.2,0-0.3,0l0,0l0,0l0,0c0,0,0,0-0.1,0c0,0,0,0-0.1,0c-0.2,0-0.4,0-0.5,0c-0.2,0-0.4,0-0.5,0h-0.1
	h-0.1c-7.5,0-13.8,0.9-19.1,2.4c-0.9,0.2-1.7,0.5-2.6,0.8c-1.7,0.5-3.2,1.1-4.7,1.7c-0.7,0.3-1.5,0.6-2.2,0.9
	c-4.2,1.9-7.8,4.1-11.1,6.1c-7.5,4.6-13,7.9-25,8.1c-12-0.2-17.5-3.5-25-8.1c-8.8-5.3-19.6-11.9-39.7-11.9l0,0l0,0l0,0l0,0l0,0
	c-0.1,0-0.3,0-0.4,0c-0.1,0-0.2,0-0.3,0l0,0l0,0c-0.2,0-0.4,0-0.6,0c-0.2,0-0.4,0-0.6,0l0,0l0,0l0,0c0,0,0,0-0.1,0c0,0,0,0-0.1,0
	c-20.1,0-30.9,6.6-39.7,11.9c-7.5,4.6-13,7.9-25,8.1c-1.2,0-2.3-0.1-3.4-0.1c-1.4-0.1-2.7-0.3-3.9-0.5c-7.3-1.2-11.9-4-17.7-7.5
	c-8.8-5.3-19.6-11.9-39.7-11.9l0,0l0,0c-0.1,0-0.2,0-0.3,0s-0.3,0-0.4,0l0,0l0,0l0,0c-0.2,0-0.4,0-0.6,0s-0.4,0-0.6,0l0,0l0,0
	c-20.1,0-30.9,6.6-39.7,11.9c-2.4,1.5-4.6,2.8-6.9,4l0,0c-1.7,0.8-3.4,1.6-5.2,2.2c-3.2,1.1-6.9,1.7-11.6,1.9c-0.4,0-0.8,0-1.2,0
	c-12-0.2-17.5-3.5-25-8.1c-8.8-5.3-19.6-11.9-39.7-11.9c0,0,0,0-0.1,0c0,0,0,0-0.1,0l0,0l0,0l0,0c-0.1,0-0.2,0-0.3,0s-0.2,0-0.3,0
	l0,0l0,0l0,0l0,0l0,0c-0.2,0-0.3,0-0.5,0s-0.4,0-0.7,0l0,0l0,0c-20.1,0-30.9,6.6-39.7,11.9c-6.7,4.1-11.9,7.2-21.6,7.9
	c-1.1,0.1-2.2,0.1-3.3,0.1c-1,0-1.9,0-2.8-0.1c-0.6,0-1.3-0.1-1.9-0.1c-0.4,0-0.8-0.1-1.2-0.1c-8.2-1-13-3.9-19.2-7.7
	c-3.3-2-6.9-4.2-11.1-6.1c-0.7-0.3-1.4-0.6-2.2-0.9c-1.5-0.6-3.1-1.2-4.7-1.7c-0.8-0.3-1.7-0.5-2.6-0.8c-5.3-1.4-11.5-2.4-19.1-2.4
	h-0.1h-0.1c-0.1,0-0.2,0-0.3,0s-0.2,0-0.3,0l0,0l0,0l0,0l0,0l0,0c-0.2,0-0.4,0-0.6,0s-0.4,0-0.6,0l0,0l0,0l0,0
	c-20.1,0-30.9,6.6-39.7,11.9c-7.2,4.4-12.6,7.7-23.7,8.1c-0.4,0-0.8,0-1.2,0c-1.1,0-2.2-0.1-3.2-0.1c-0.2,0-0.4,0-0.6,0
	c-1.1-0.1-2.2-0.2-3.2-0.4c-0.2,0-0.5-0.1-0.7-0.1c-2-0.3-3.7-0.8-5.4-1.4c-1-0.3-1.9-0.7-2.8-1.1c-0.7-0.3-1.5-0.7-2.2-1
	c-0.9-0.5-1.8-0.9-2.7-1.5c-1.4-0.8-2.7-1.6-4.2-2.5c-8.8-5.3-19.6-11.9-39.7-11.9l0,0l0,0l0,0c0,0,0,0-0.1,0l0,0
	c-0.1,0-0.2,0-0.3,0s-0.2,0-0.3,0l0,0c0,0,0,0-0.1,0l0,0l0,0l0,0l0,0l0,0c-0.2,0-0.4,0-0.6,0s-0.4,0-0.6,0l0,0l0,0l0,0
	c-20.1,0-30.9,6.6-39.7,11.9c-1,0.6-1.9,1.2-2.8,1.7c-5.9,3.5-11.2,6-20.9,6.4l0,0c-0.4,0-0.8,0-1.3,0c-12-0.2-17.5-3.5-25-8.1
	c-8.8-5.3-19.6-11.9-39.7-11.9l0,0l0,0l0,0c-0.1,0-0.2,0-0.3,0s-0.3,0-0.4,0l0,0l0,0l0,0h-0.1l0,0c-0.2,0-0.4,0-0.5,0
	c-0.2,0-0.4,0-0.5,0c0,0,0,0-0.1,0c0,0,0,0-0.1,0l0,0l0,0l0,0l0,0l0,0c-20.1,0-30.9,6.6-39.7,11.9c-7.5,4.6-13,7.9-25,8.1
	c-1.2,0-2.3-0.1-3.4-0.1c-1.4-0.1-2.7-0.3-3.9-0.5c-7.3-1.2-11.9-4-17.7-7.5c-3.3-2-6.9-4.2-11.1-6.1c-0.7-0.3-1.4-0.6-2.2-0.9
	c-1.5-0.6-3.1-1.2-4.7-1.7c-0.8-0.3-1.7-0.5-2.6-0.8c-5.3-1.4-11.5-2.4-19.1-2.4l0,0l0,0l0,0l0,0c-0.1,0-0.2,0-0.3,0s-0.2,0-0.3,0
	l0,0l0,0l0,0l0,0c0,0,0,0-0.1,0l0,0c-0.2,0-0.3,0-0.5,0s-0.4,0-0.6,0l0,0l0,0h-0.1c-20.1,0-30.9,6.6-39.7,11.9
	c-3.4,2.1-6.3,3.9-9.7,5.2c-0.5,0.2-1,0.4-1.5,0.6c-3.7,1.4-8,2.2-13.9,2.3c-12-0.2-17.5-3.5-24.9-8.1c-8.8-5.3-19.6-11.9-39.7-11.9
	l0,0l0,0l0,0l0,0l0,0l0,0l0,0c-0.1,0-0.2,0-0.3,0s-0.2,0-0.3,0l0,0l0,0l0,0l0,0c-0.2,0-0.4,0-0.6,0s-0.4,0-0.6,0l0,0l0,0l0,0
	c0,0,0,0-0.1,0l0,0c-20.1,0-30.9,6.6-39.7,11.9c-7.5,4.6-13,7.9-24.9,8.1c-3,0-5.7-0.3-8-0.7c-1.8-0.3-3.4-0.7-4.9-1.2
	c-4.4-1.4-8-3.6-12.1-6.2c-3.3-2-6.9-4.2-11.1-6.1c-0.7-0.3-1.4-0.6-2.2-0.9c-1.5-0.6-3.1-1.2-4.7-1.7c-0.8-0.3-1.7-0.5-2.6-0.8
	c-5.3-1.4-11.5-2.4-19.1-2.4l0,0c0,0,0,0-0.1,0l0,0l0,0l0,0c-0.1,0-0.2,0-0.3,0s-0.2,0-0.3,0l0,0l0,0l0,0l0,0c-0.2,0-0.4,0-0.6,0
	s-0.4,0-0.6,0l0,0l0,0l0,0c-20.1,0-30.9,6.6-39.7,11.9c-4.8,2.9-8.8,5.4-14.2,6.8c-0.5,0.1-1.1,0.3-1.7,0.4
	c-2.6,0.5-5.6,0.9-9.1,0.9c-7.4-0.1-12.3-1.4-16.8-3.5c-0.9-0.4-1.8-0.9-2.7-1.4s-1.8-1-2.7-1.5c-0.5-0.3-0.9-0.5-1.4-0.8
	s-0.9-0.6-1.4-0.9c-8.8-5.3-19.6-11.9-39.7-11.9l0,0l0,0l0,0l0,0l0,0c-0.1,0-0.2,0-0.3,0s-0.2,0-0.3,0l0,0l0,0l0,0l0,0l0,0l0,0l0,0
	c-0.2,0-0.3,0-0.5,0s-0.4,0-0.7,0l0,0l0,0l0,0l0,0c-20.1,0-30.9,6.6-39.7,11.9c-0.3,0.2-0.6,0.4-0.9,0.5c-0.5,0.3-1,0.6-1.5,0.9
	c-5.2,3.1-9.9,5.5-17.2,6.3c-0.4,0-0.8,0.1-1.2,0.1c-0.3,0-0.5,0.1-0.8,0.1s-0.5,0-0.8,0c-0.8,0.1-1.7,0.1-2.6,0.1
	c-12-0.2-17.6-3.5-25-8.1c-0.6-0.4-1.3-0.8-2-1.2c-0.2-0.1-0.4-0.2-0.5-0.3c-0.4-0.2-0.8-0.5-1.2-0.7c-0.2-0.1-0.5-0.3-0.7-0.4
	c-0.3-0.2-0.7-0.4-1.1-0.6c-0.3-0.2-0.6-0.3-0.8-0.5c-0.3-0.2-0.7-0.4-1-0.6s-0.6-0.3-0.9-0.5c-0.3-0.2-0.7-0.3-1-0.5
	s-0.7-0.3-1-0.5s-0.7-0.3-1-0.5c-0.4-0.2-0.7-0.3-1.1-0.5c-0.4-0.2-0.7-0.3-1.1-0.5c-0.4-0.2-0.8-0.3-1.2-0.5
	c-0.4-0.1-0.7-0.3-1.1-0.4c-0.4-0.2-0.9-0.3-1.3-0.4c-0.4-0.1-0.7-0.3-1.1-0.4c-0.5-0.1-0.9-0.3-1.4-0.4c-0.4-0.1-0.8-0.2-1.2-0.3
	c-0.5-0.1-1-0.3-1.5-0.4c-0.4-0.1-0.8-0.2-1.2-0.3c-0.5-0.1-1.1-0.2-1.6-0.3c-0.4-0.1-0.8-0.2-1.3-0.2c-0.6-0.1-1.2-0.2-1.8-0.3
	c-0.4-0.1-0.8-0.1-1.3-0.2c-0.6-0.1-1.3-0.1-2-0.2c-0.4,0-0.8-0.1-1.3-0.1c-0.7-0.1-1.5-0.1-2.3-0.1c-0.4,0-0.8-0.1-1.1-0.1
	c-1.2,0-2.4-0.1-3.6-0.1l0,0l0,0l0,0l0,0l0,0c-0.1,0-0.2,0-0.3,0s-0.3,0-0.4,0l0,0l0,0c0,0,0,0-0.1,0c0,0,0,0-0.1,0
	c-0.2,0-0.4,0-0.6,0c-0.2,0-0.4,0-0.6,0l0,0l0,0l0,0l0,0l0,0l0,0l0,0c-20.1,0-30.9,6.6-39.7,11.9c-7.5,4.6-13,7.9-25,8.1
	c-6.6-0.1-11.3-1.1-15.4-2.8l0,0c-0.5-0.2-0.9-0.4-1.4-0.6c-0.1-0.1-0.3-0.1-0.4-0.2c-0.3-0.1-0.6-0.3-0.9-0.5
	c-2.3-1.2-4.5-2.5-6.9-4c-0.2-0.1-0.3-0.2-0.5-0.3c-0.1-0.1-0.2-0.1-0.3-0.2c-0.4-0.2-0.7-0.4-1.1-0.7c-0.3-0.2-0.6-0.3-0.9-0.5
	c-0.3-0.2-0.6-0.3-0.9-0.5c-0.3-0.2-0.7-0.4-1-0.6c-0.3-0.1-0.5-0.3-0.8-0.4c-0.4-0.2-0.7-0.4-1.1-0.6c-0.2-0.1-0.5-0.3-0.7-0.4
	c-0.4-0.2-0.8-0.4-1.3-0.6c-0.2-0.1-0.5-0.2-0.7-0.4c-0.5-0.2-0.9-0.4-1.4-0.7c-0.2-0.1-0.4-0.2-0.7-0.3c-0.5-0.2-1-0.4-1.5-0.7
	c-0.2-0.1-0.4-0.2-0.6-0.3c-0.6-0.2-1.1-0.4-1.7-0.7c-0.2-0.1-0.4-0.1-0.6-0.2c-0.6-0.2-1.2-0.4-1.9-0.6c-0.2-0.1-0.4-0.1-0.5-0.2
	c-0.7-0.2-1.4-0.4-2.1-0.6c-0.2,0-0.3-0.1-0.5-0.1c-0.7-0.2-1.5-0.4-2.3-0.6c-0.2,0-0.3-0.1-0.4-0.1c-0.8-0.2-1.6-0.3-2.5-0.5
	c-0.1,0-0.3-0.1-0.4-0.1c-0.9-0.2-1.8-0.3-2.7-0.4c-0.1,0-0.2,0-0.3,0c-1-0.1-2-0.2-3-0.3c-0.1,0-0.2,0-0.2,0
	c-1.1-0.1-2.2-0.2-3.3-0.2h-0.1c-1.2-0.1-2.5-0.1-3.8-0.1l0,0l0,0l0,0c0,0,0,0-0.1,0l0,0c-0.1,0-0.2,0-0.3,0s-0.2,0-0.3,0l0,0l0,0
	l0,0c0,0,0,0-0.1,0c-0.2,0-0.3,0-0.5,0s-0.4,0-0.7,0l0,0l0,0c0,0,0,0-0.1,0c0,0,0,0-0.1,0c-20.1,0-30.9,6.6-39.7,11.9
	c-3.8,2.3-7.2,4.4-11.1,5.8c-2,0.7-4.1,1.3-6.6,1.7c-1.2,0.2-2.5,0.3-3.9,0.5c-0.7,0.1-1.4,0.1-2.2,0.1c-0.5,0-0.9,0-1.4,0
	c-4.2-0.1-7.7-0.5-10.7-1.3l0,0c-0.5-0.1-1.1-0.3-1.6-0.4l0,0c-0.5-0.2-1-0.3-1.5-0.5c-0.1,0-0.3-0.1-0.4-0.2
	c-0.4-0.1-0.7-0.3-1.1-0.4c-0.3-0.1-0.6-0.3-0.9-0.4c-0.2-0.1-0.3-0.1-0.5-0.2c-2.8-1.3-5.4-2.9-8.3-4.6
	c-8.8-5.3-19.6-11.9-39.7-11.9l0,0l0,0l0,0c-0.2,0-0.3,0-0.4,0s-0.2,0-0.3,0l0,0l0,0l0,0l0,0l0,0l0,0l0,0c-0.2,0-0.4,0-0.6,0
	s-0.4,0-0.6,0l0,0l0,0l0,0c0,0,0,0-0.1,0c-1.3,0-2.5,0-3.7,0.1c-0.3,0-0.7,0-1,0.1c-0.8,0-1.7,0.1-2.5,0.2c-0.5,0-0.9,0.1-1.3,0.1
	c-0.6,0.1-1.3,0.1-1.9,0.2c-0.5,0.1-1,0.2-1.5,0.2c-0.5,0.1-1,0.1-1.5,0.2c-0.7,0.1-1.3,0.2-1.9,0.4c-0.3,0.1-0.7,0.1-1,0.2
	c-0.9,0.2-1.8,0.4-2.6,0.6h-0.1c-8.9,2.4-15.2,6.2-20.7,9.5c-7.5,4.6-13,7.9-25,8.1c-0.3,0-0.7,0-1,0c-0.2,0-0.4,0-0.5,0
	c-0.6,0-1.1-0.1-1.7-0.1c-0.1,0-0.2,0-0.2,0c-0.6,0-1.2-0.1-1.8-0.2c-0.1,0-0.3,0-0.4-0.1c-0.5-0.1-0.9-0.1-1.4-0.2
	c-0.1,0-0.2,0-0.3,0c-0.5-0.1-1.1-0.2-1.6-0.3c-0.1,0-0.2-0.1-0.4-0.1c-0.4-0.1-0.8-0.2-1.2-0.3c-0.1,0-0.2-0.1-0.3-0.1
	c-0.5-0.1-0.9-0.3-1.4-0.4c-0.1,0-0.2-0.1-0.3-0.1c-0.4-0.1-0.8-0.3-1.1-0.4c-0.1,0-0.2-0.1-0.3-0.1c-0.4-0.2-0.9-0.3-1.3-0.5
	c0,0-0.1,0-0.1-0.1c-0.4-0.2-0.8-0.3-1.2-0.5c-0.1,0-0.2-0.1-0.3-0.1c-0.4-0.2-0.8-0.4-1.3-0.6c-0.9-0.5-1.8-0.9-2.7-1.4l-0.1-0.1
	c-0.6-0.3-1.1-0.7-1.7-1c-0.2-0.1-0.4-0.2-0.6-0.4c-0.5-0.3-1-0.6-1.5-0.9c-0.1,0-0.1-0.1-0.2-0.1c-8.6-5.2-19.2-11.6-38.5-11.9
	c0,0,0,0-0.1,0c-0.4,0-0.7,0-1.1,0l0,0c-0.1,0-0.1,0-0.2,0h-0.1c-0.2,0-0.3,0-0.5,0l0,0l0,0l0,0c0,0,0,0-0.1,0l0,0
	c-0.2,0-0.3,0-0.5,0h-0.1c-0.2,0-0.4,0-0.6,0l0,0l0,0l0,0l0,0l0,0l0,0l0,0c-1.2,0-2.5,0-3.6,0.1c-0.3,0-0.7,0-1,0.1
	c-0.8,0-1.7,0.1-2.4,0.2c-0.5,0-0.9,0.1-1.3,0.1c-0.6,0.1-1.3,0.1-1.9,0.2c-0.5,0.1-1,0.2-1.5,0.2c-0.5,0.1-1,0.1-1.5,0.2
	c-0.7,0.1-1.3,0.3-1.9,0.4c-0.3,0.1-0.6,0.1-1,0.2c-0.9,0.2-1.8,0.4-2.6,0.6h-0.1c-8.9,2.4-15.2,6.2-20.7,9.5
	c-7.5,4.6-13,7.9-25,8.1c-0.3,0-0.6,0-1,0c-0.2,0-0.4,0-0.5,0c-0.6,0-1.1-0.1-1.7-0.1c-0.1,0-0.2,0-0.2,0c-0.6,0-1.2-0.1-1.8-0.2
	c-0.1,0-0.3,0-0.4-0.1c-0.5-0.1-0.9-0.1-1.4-0.2c-0.1,0-0.2,0-0.3,0c-0.5-0.1-1.1-0.2-1.6-0.3c-0.1,0-0.2-0.1-0.4-0.1
	c-0.4-0.1-0.8-0.2-1.2-0.3c-0.1,0-0.2-0.1-0.3-0.1c-0.5-0.1-0.9-0.3-1.4-0.4c-0.1,0-0.2-0.1-0.3-0.1c-0.4-0.1-0.8-0.2-1.1-0.4
	c-0.1,0-0.2-0.1-0.3-0.1c-0.4-0.2-0.9-0.3-1.3-0.5c-0.1,0-0.1,0-0.2-0.1c-0.4-0.2-0.8-0.3-1.1-0.5c-0.1,0-0.2-0.1-0.3-0.1
	c-0.4-0.2-0.8-0.4-1.2-0.6c-0.9-0.5-1.8-0.9-2.7-1.5l0,0c-0.6-0.3-1.2-0.7-1.8-1.1c-0.2-0.1-0.3-0.2-0.5-0.3
	c-0.6-0.4-1.2-0.7-1.8-1.1c-5.5-3.3-11.8-7.1-20.6-9.5c-5.3-1.4-11.5-2.4-19.1-2.4l0,0c-0.1,0-0.3,0-0.4,0s-0.3,0-0.4,0l0,0l0,0l0,0
	l0,0c-0.2,0-0.4,0-0.6,0s-0.5,0-0.7,0l0,0l0,0l0,0c0,0,0,0-0.1,0l0,0c-0.2,0-0.3,0-0.5,0c-0.9,0-1.8,0-2.7,0.1
	c-0.6,0-1.1,0.1-1.7,0.1c-0.5,0-0.9,0.1-1.4,0.1c-0.7,0.1-1.3,0.1-2,0.2c-0.3,0-0.5,0.1-0.8,0.1c-0.8,0.1-1.5,0.2-2.2,0.3h-0.1
	c-13.1,1.9-21.3,6.9-28.3,11.1c-7.5,4.6-13,7.9-25,8.1c-12-0.2-17.5-3.5-25-8.1c-8.8-5.3-19.6-11.9-39.7-11.9l0,0
	c-0.1,0-0.3,0-0.4,0s-0.3,0-0.4,0l0,0l0,0l0,0l0,0c-0.2,0-0.3,0-0.5,0c-0.1,0-0.1,0-0.2,0c-0.2,0-0.4,0-0.6,0l0,0l0,0l0,0l0,0
	c-7.7,0-14,1-19.4,2.5c-0.1,0-0.3,0.1-0.4,0.1c-0.6,0.2-1.3,0.4-1.9,0.6c-0.3,0.1-0.5,0.2-0.8,0.3c-0.4,0.1-0.8,0.3-1.2,0.4
	c-0.4,0.1-0.8,0.3-1.1,0.4c-0.2,0.1-0.3,0.1-0.5,0.2c-5.7,2.2-10.3,5-14.4,7.5l0,0c-1,0.6-1.9,1.2-2.8,1.7c-0.6,0.4-1.2,0.7-1.8,1
	c-0.2,0.1-0.3,0.2-0.5,0.3c-0.6,0.3-1.2,0.7-1.8,1c-0.4,0.2-0.8,0.4-1.2,0.6c-0.1,0-0.2,0.1-0.3,0.1c-0.4,0.2-0.8,0.4-1.2,0.5
	c-0.1,0-0.1,0.1-0.2,0.1c-0.4,0.2-0.8,0.3-1.2,0.5c-0.1,0-0.1,0.1-0.2,0.1c-0.4,0.2-0.9,0.3-1.3,0.4c-0.1,0-0.2,0.1-0.3,0.1
	c-0.9,0.3-1.9,0.5-2.9,0.8c-0.1,0-0.2,0-0.3,0.1c-0.5,0.1-1,0.2-1.6,0.3c-0.1,0-0.2,0-0.3,0c-0.5,0.1-1,0.1-1.5,0.2
	c-0.1,0-0.2,0-0.3,0c-0.6,0.1-1.2,0.1-1.8,0.2c-0.1,0-0.3,0-0.4,0c-0.6,0-1.3,0.1-1.9,0.1l0,0c-0.5,0-1.1,0-1.7,0c-0.5,0-1,0-1.4,0
	c-0.2,0-0.4,0-0.5,0c-0.6,0-1.1-0.1-1.7-0.1c-0.1,0-0.2,0-0.2,0c-0.6,0-1.2-0.1-1.8-0.2c-0.1,0-0.3,0-0.4-0.1
	c-0.5-0.1-0.9-0.1-1.4-0.2c-0.1,0-0.2,0-0.3,0c-0.5-0.1-1.1-0.2-1.6-0.3c-0.1,0-0.2-0.1-0.4-0.1c-0.4-0.1-0.8-0.2-1.2-0.3
	c-0.1,0-0.2-0.1-0.3-0.1c-0.5-0.1-0.9-0.3-1.4-0.4c-0.1,0-0.2-0.1-0.3-0.1c-0.4-0.1-0.8-0.2-1.1-0.4c-0.1,0-0.2-0.1-0.3-0.1
	c-0.4-0.2-0.9-0.3-1.3-0.5c-0.1,0-0.1,0-0.2-0.1c-0.4-0.2-0.7-0.3-1.1-0.5c-0.1,0-0.2-0.1-0.3-0.1c-0.4-0.2-0.8-0.4-1.2-0.6
	c-0.9-0.5-1.8-0.9-2.7-1.5l0,0c-0.6-0.4-1.2-0.7-1.9-1.1c-0.2-0.1-0.3-0.2-0.5-0.3c-0.6-0.4-1.2-0.7-1.8-1.1
	c-5.5-3.3-11.8-7.1-20.6-9.5c-5.3-1.4-11.5-2.4-19.1-2.4l0,0l0,0l0,0l0,0c-0.2,0-0.4,0-0.6,0s-0.4,0-0.6,0l0,0l0,0l0,0l0,0
	c-0.2,0-0.3,0-0.5,0s-0.4,0-0.6,0l0,0c-19.4,0.2-30.1,6.7-38.7,11.9c0,0,0,0-0.1,0c-0.9,0.6-1.8,1.1-2.7,1.6l-0.1,0.1
	c-0.6,0.3-1.1,0.7-1.7,1c-0.2,0.1-0.3,0.2-0.5,0.3c-0.6,0.3-1.2,0.6-1.8,0.9c-0.4,0.2-0.9,0.4-1.3,0.6c-0.1,0-0.2,0.1-0.2,0.1
	c-0.4,0.2-0.8,0.4-1.3,0.5c-0.1,0-0.1,0-0.2,0.1c-0.4,0.2-0.8,0.3-1.2,0.5c-0.1,0-0.1,0-0.2,0.1c-0.4,0.2-0.9,0.3-1.3,0.4
	c-0.1,0-0.2,0.1-0.3,0.1c-0.9,0.3-1.9,0.5-2.9,0.8c-0.1,0-0.2,0-0.3,0.1c-0.5,0.1-1,0.2-1.6,0.3c-0.1,0-0.2,0-0.3,0
	c-0.5,0.1-1,0.1-1.5,0.2c-0.1,0-0.2,0-0.3,0c-0.6,0.1-1.2,0.1-1.8,0.2c-0.1,0-0.3,0-0.4,0c-1.1,0.1-2.3,0.1-3.6,0.1
	c-12.3-0.1-17.9-3.5-25.5-8.1c-8.8-5.3-19.6-11.9-39.7-11.9l0,0c-0.2,0-0.4,0-0.5,0c-0.2,0-0.5,0-0.7,0l0,0l0,0l0,0l0,0
	c-20.1,0-31,6.6-39.7,11.9c-7.7,4.7-13.3,8.1-26.1,8.1s-18.4-3.4-26.1-8.1c-8.8-5.3-19.6-11.9-39.7-11.9l0,0c-4.8,0-9,0.4-12.8,1v48
	h12.8h65.8h1.3H-60h1.3H7.1h65.8h66.6h65.8h65.8h65.8h4340.3h65.8h65.8h1.3h64.5h1.3h65.8h65.8h66.6h65.8h62.1v-48
	C5197.4-907.7,5200.2-908,5203.1-908.2z"/>
<path class="st0" d="M-204.4-162.6c450.6,0,450.6,23.4,901.2,23.4c450.6,0,450.6-23.4,901.3-23.4s450.6,23.4,901.3,23.4
	s450.6-23.4,901.3-23.4c450.6,0,450.6,23.4,901.3,23.4c450.6,0,450.6-23.4,901.3-23.4l-10,49H-214.4L-204.4-162.6z"/>
<path class="st0" d="M5204,26.4C4996,26.4,4996,0,4788,0s-208,26.4-416,26.4S4164,0,3956.1,0c-208,0-208,26.4-416,26.4
	c-208,0-208-26.4-416-26.4c-208,0-208,26.4-416,26.4c-208,0-208-26.4-416-26.4c-208,0-208,26.4-416,26.4c-208,0-208-26.4-416-26.4
	c-208,0-208,26.4-416,26.4c-208,0-208-26.4-416-26.4c-208,0-208,26.4-416,26.4S4.4,0-203.6,0l40.6,107l137,35.5h5230V26.4z"/>
</svg>
